<svg version="1.1" id="Layer_1" xmlns="http://www.w3.org/2000/svg" xmlns:xlink="http://www.w3.org/1999/xlink" x="0px" y="0px"
	 width="100%" viewBox="0 0 960 368" enable-background="new 0 0 960 368" xml:space="preserve">
<path fill="#000000" opacity="1.000000" stroke="none" 
	d="
M0.999999,248.468643 
	C2.566723,240.702087 3.596730,233.238602 5.788554,226.133530 
	C18.610935,184.568130 43.933762,154.637695 86.303391,140.950928 
	C93.292198,138.693329 100.577057,137.771469 107.861267,137.000198 
	C109.122849,136.866608 110.555038,136.514587 111.617577,138.232758 
	C110.457100,140.593307 107.891144,141.143509 105.807701,142.261383 
	C79.835609,156.196671 58.774403,174.969131 47.585239,202.938766 
	C35.358669,233.501648 37.971062,263.570251 52.428490,292.708313 
	C63.987583,316.004974 81.387299,333.551147 105.400551,344.186035 
	C120.114243,350.702332 135.633743,351.558624 151.388718,351.023651 
	C174.100037,350.252502 195.963791,346.083557 216.282120,335.356506 
	C221.210480,332.754578 225.368988,328.947052 230.600433,326.680908 
	C220.307907,344.903503 204.890213,357.746735 187.216705,368.746399 
	C146.645767,369.000000 106.291542,369.000000 65.267975,368.732178 
	C63.639027,367.818115 62.704872,367.129822 61.716095,366.531830 
	C36.676449,351.389191 18.743866,330.298645 8.148235,302.951843 
	C4.394977,293.264893 3.136455,283.041260 1.000000,273.000000 
	C1.000000,264.979095 1.000000,256.958191 0.999999,248.468643 
z"/>
<path fill="#000000" opacity="1.000000" stroke="none" 
	d="
M787.468628,369.000000 
	C783.190613,365.191498 778.233032,363.035126 773.914368,359.947845 
	C759.981934,349.987915 749.007751,337.436066 740.405090,322.722321 
	C739.689392,321.498230 738.606262,320.244720 739.561951,318.558807 
	C741.687866,317.848572 742.955750,319.524384 744.415771,320.406372 
	C764.947754,332.809570 786.588806,342.397797 810.241516,347.192139 
	C861.490601,357.580200 901.537170,330.885712 917.656189,288.052399 
	C927.694275,261.378052 923.464417,235.614807 908.870972,211.475540 
	C894.166626,187.152710 872.698242,169.984619 848.831543,155.423111 
	C846.920715,154.257339 844.467896,153.683655 843.174011,149.889206 
	C873.242432,150.748306 898.288513,162.177170 920.369934,180.829895 
	C942.875732,199.841156 956.691589,223.884064 960.876221,253.635437 
	C961.000000,261.354248 961.000000,268.708496 960.874878,276.898254 
	C960.618103,278.211212 960.421570,278.681000 960.363953,279.167236 
	C956.776611,309.431427 942.969666,334.148071 920.029724,354.018524 
	C913.475098,359.696045 905.675598,363.541260 899.000000,369.000000 
	C861.979126,369.000000 824.958191,369.000000 787.468628,369.000000 
z"/>
<path fill="#000000" opacity="1.000000" stroke="none" 
	d="
M422.531372,1.000000 
	C429.904602,3.201105 437.523132,3.339373 443.663849,8.171874 
	C433.215302,8.956279 422.927551,6.238528 412.647125,7.519773 
	C402.253052,8.815185 392.245117,11.804883 381.536438,16.026087 
	C386.200165,18.462996 390.209320,18.716597 394.249176,18.677931 
	C419.177429,18.439335 441.284393,26.681810 461.241852,41.151695 
	C464.572052,43.566189 468.516418,45.600246 470.544464,49.790379 
	C467.708130,51.122608 465.913513,49.452023 464.006470,48.716022 
	C450.030304,43.322056 436.242523,37.389412 421.754364,33.439159 
	C398.372162,27.063932 375.024017,27.902134 351.696289,33.952267 
	C348.290039,34.835686 344.915955,36.721081 341.239594,35.643040 
	C340.238098,33.038929 341.893341,31.633022 343.173584,30.165958 
	C356.190521,15.249473 373.069977,7.179757 391.980133,2.752135 
	C394.404663,2.184453 396.869781,1.790156 399.658051,1.157770 
	C407.354248,1.000000 414.708496,1.000000 422.531372,1.000000 
z"/>
<path fill="#000000" opacity="1.000000" stroke="none" 
	d="
M352.868225,64.650970 
	C375.821320,61.479088 396.992340,66.707275 417.558899,75.171089 
	C442.576538,85.466690 465.138641,100.043701 485.933105,117.081093 
	C500.193237,128.764740 516.082581,137.098679 532.544861,144.825729 
	C565.634155,160.357239 597.944092,177.231552 626.162537,200.914398 
	C634.083374,207.562134 641.832642,214.391113 648.191223,222.609344 
	C649.762207,224.639877 652.019958,226.395676 651.935730,229.624390 
	C649.368591,230.525528 647.914673,228.602768 646.296875,227.418060 
	C620.455750,208.494659 593.917480,190.662292 565.170898,176.383148 
	C542.721008,165.231720 519.497375,156.294754 494.583008,152.181885 
	C463.990540,147.131699 434.622223,151.711777 405.891418,162.508072 
	C393.290314,167.243271 381.126892,173.268112 367.730621,175.738480 
	C361.449982,176.896683 355.142334,177.095428 348.854309,176.142365 
	C336.582764,174.282364 330.784058,167.841034 327.777863,153.023285 
	C326.918640,148.788086 326.133789,144.537704 325.328766,140.291656 
	C323.526367,130.784683 319.229645,122.457191 313.829498,114.493774 
	C303.799683,99.703232 306.986023,85.094093 322.008057,75.160286 
	C331.251282,69.047920 341.582123,66.133347 352.868225,64.650970 
M420.480988,99.080101 
	C398.221313,89.013145 375.149719,83.616463 350.583740,87.142853 
	C334.513824,89.449654 331.032135,97.356461 340.442230,110.625198 
	C344.234955,115.973099 346.334595,121.415352 346.532684,128.126709 
	C347.014038,144.435165 356.443420,151.479050 372.447205,148.314896 
	C381.140259,146.596176 389.502258,143.750900 397.776245,140.706375 
	C420.113037,132.487198 443.004120,128.384369 466.856232,130.568802 
	C468.168945,130.689026 469.775848,131.158279 471.184937,129.606461 
	C455.263367,118.097916 438.762299,107.848396 420.480988,99.080101 
z"/>
<path fill="#000000" opacity="1.000000" stroke="none" 
	d="
M580.685669,312.035217 
	C612.201416,315.938354 642.845581,321.997375 673.124756,329.915924 
	C675.082275,330.427826 677.517212,330.135193 679.044373,332.546478 
	C677.152161,333.866730 675.174500,333.176575 673.338074,333.040833 
	C652.267456,331.482697 631.180969,330.094452 610.137695,328.222687 
	C585.760864,326.054443 561.360596,324.439453 536.904785,323.576416 
	C518.735474,322.935211 500.592896,323.987976 482.461487,324.667358 
	C465.346191,325.308655 448.264435,326.938232 431.179932,328.285522 
	C405.472107,330.312897 379.867523,333.297302 354.305847,336.698517 
	C342.792328,338.230499 331.324249,340.596588 319.579895,339.356537 
	C312.576385,338.617096 306.407349,336.016968 300.996643,331.531860 
	C297.216400,328.398315 295.808167,324.794739 297.008667,319.701660 
	C301.871429,299.071106 304.198151,278.047974 304.535126,256.910156 
	C305.182465,216.302277 294.337616,178.656921 273.931763,143.636459 
	C270.500000,137.746841 267.652618,131.516083 264.567200,125.426727 
	C264.365173,125.028008 264.437714,124.490181 264.385132,124.039223 
	C265.644104,122.992638 266.289215,124.038132 266.908752,124.713127 
	C290.370728,150.273880 309.281738,178.641602 319.991241,211.929916 
	C324.440887,225.760834 326.155548,240.135101 327.357452,254.575958 
	C328.863586,272.672668 329.531708,290.792297 329.321594,308.947845 
	C329.310303,309.924225 329.189301,310.970123 330.589020,312.296539 
	C413.434998,306.821411 496.846069,301.927948 580.685669,312.035217 
z"/>
<path fill="#000000" opacity="1.000000" stroke="none" 
	d="
M759.062683,112.766281 
	C773.679688,110.691376 787.858337,109.309052 802.238403,110.632683 
	C817.026550,111.993896 830.986145,115.909416 844.165588,122.692810 
	C845.050537,123.148338 845.903137,123.686424 846.704651,124.276009 
	C847.069519,124.544426 847.273071,125.032227 847.588745,125.475151 
	C845.884521,127.430878 844.214661,125.984764 842.568726,125.574333 
	C799.838196,114.918877 758.374329,119.256630 719.315796,138.980453 
	C696.158386,150.674530 679.936951,169.918381 672.275940,195.367264 
	C670.892822,199.961685 670.032104,204.716446 671.092712,209.619461 
	C671.420044,211.132492 671.841919,212.898529 670.516907,214.348770 
	C668.280945,214.650787 667.273010,212.826691 665.967834,211.686874 
	C646.273438,194.488770 626.685364,177.171860 605.155762,162.219879 
	C594.257568,154.651276 582.138428,149.557159 570.082214,144.305954 
	C565.649963,142.375427 561.242981,140.420944 557.241699,137.660858 
	C554.016418,135.436050 551.392029,132.701874 549.955261,129.001541 
	C546.863159,121.038239 550.771057,115.226074 559.230957,115.699112 
	C569.278503,116.260925 578.724365,119.782158 588.323608,122.429092 
	C607.413818,127.693115 626.549561,132.690933 646.361145,134.411514 
	C661.508972,135.727036 676.182190,132.777740 690.731201,129.114120 
	C713.303528,123.430145 735.654968,116.834770 759.062683,112.766281 
z"/>
<path fill="#000000" opacity="1.000000" stroke="none" 
	d="
M853.363037,209.675659 
	C818.286255,194.451782 787.183167,218.876312 780.807922,245.499619 
	C777.210693,260.521759 782.724792,273.275574 790.403381,285.531982 
	C794.231873,291.642853 799.209351,296.807098 804.262451,301.895264 
	C805.286377,302.926331 806.615051,303.757416 806.777405,305.429657 
	C790.387207,308.100525 758.195251,290.069397 750.154724,257.124603 
	C741.426941,221.364105 766.115234,183.287582 801.001160,177.569031 
	C833.427368,172.253693 864.709900,195.543549 870.191895,218.778183 
	C864.087769,215.964661 859.392944,211.877350 853.363037,209.675659 
z"/>
<path fill="#000000" opacity="1.000000" stroke="none" 
	d="
M495.008057,277.712219 
	C514.168640,277.695984 532.849731,278.212250 551.487976,277.541199 
	C585.761841,276.307312 619.823669,272.682953 653.539001,266.217865 
	C664.964050,264.027069 676.351379,261.638885 687.752808,259.325500 
	C689.169434,259.038055 690.585938,258.186218 691.934814,259.469513 
	C692.234741,261.013702 691.000122,261.476501 690.105225,262.149445 
	C688.640991,263.250366 687.117981,264.275482 685.682495,265.411804 
	C673.219055,275.278137 673.029236,283.277496 684.941528,293.941193 
	C686.393433,295.240906 688.384155,296.072266 688.969360,298.222778 
	C688.163818,299.957062 686.712708,299.359985 685.513611,299.088715 
	C629.472656,286.410522 572.558960,286.290039 515.589661,287.540039 
	C496.964996,287.948700 478.396973,289.984497 459.745026,290.368896 
	C444.876648,290.675293 433.964172,285.213898 428.157288,270.953796 
	C426.338806,266.488068 424.011658,262.230804 421.953857,257.860931 
	C417.166809,247.695221 413.793976,236.494843 401.566864,231.502640 
	C405.157684,228.602554 408.859009,229.844971 412.098602,229.103668 
	C415.395996,228.349167 418.438019,227.644241 421.155334,225.387238 
	C424.447815,222.652542 426.945038,223.295959 428.444153,227.368362 
	C429.813171,231.087372 430.439087,235.076767 431.456390,238.930115 
	C431.836060,240.368073 432.225800,242.062164 434.008759,242.262573 
	C435.857513,242.470352 436.425873,240.769333 437.103119,239.467087 
	C437.793762,238.139114 438.305542,236.718414 438.991089,235.387451 
	C441.530945,230.456604 443.162903,229.885452 447.797455,232.828079 
	C450.872955,234.780823 454.525726,234.118347 457.755066,235.261703 
	C457.776764,237.980789 455.604858,238.690948 454.226044,239.978806 
	C446.976868,246.749771 442.039276,254.491684 443.244019,264.996185 
	C444.017242,271.738007 447.861359,275.265137 454.617462,275.734131 
	C467.903442,276.656464 481.179016,277.709137 495.008057,277.712219 
z"/>
<path fill="#000000" opacity="1.000000" stroke="none" 
	d="
M212.053970,118.058258 
	C234.016693,94.115761 257.679047,72.758675 285.789948,56.782326 
	C296.238342,50.844170 307.226837,46.075504 318.615997,42.236088 
	C319.987579,41.773708 321.371338,41.135628 322.816864,42.159061 
	C322.424805,44.546135 320.391205,44.922932 318.923859,45.816345 
	C291.391449,62.579624 265.619019,81.637054 242.154236,103.813271 
	C217.288559,127.313423 201.085388,155.913116 191.341171,188.442749 
	C188.669067,197.363190 186.034241,206.295685 183.246384,215.180008 
	C182.504700,217.543625 181.441132,219.853073 180.209610,222.006866 
	C177.225967,227.224792 173.309250,227.896469 168.689056,224.152115 
	C168.045181,223.630310 167.427444,223.051086 166.901321,222.412933 
	C155.709595,208.837402 140.786087,204.192123 123.833412,204.342712 
	C122.542015,204.354187 121.168503,204.725311 119.783890,203.758347 
	C119.872131,201.245911 122.209183,201.251816 123.676208,200.869980 
	C142.409790,195.993988 156.461319,184.913605 167.971970,169.536087 
	C181.445648,151.536087 196.406158,134.712753 212.053970,118.058258 
z"/>
<path fill="#000000" opacity="1.000000" stroke="none" 
	d="
M412.278503,184.226974 
	C419.209137,181.243286 425.757935,178.355362 432.359650,175.593918 
	C435.632843,174.224792 439.174408,171.709335 441.684845,176.792145 
	C444.273621,182.033447 443.392334,187.986862 439.193085,190.152771 
	C426.401978,196.750214 413.162811,202.112915 398.581787,203.166794 
	C392.277954,203.622406 385.968018,204.010361 379.655701,204.326660 
	C372.787231,204.670853 370.913818,206.818192 372.719025,213.515762 
	C375.682861,224.512100 380.593872,234.730515 386.345154,244.512054 
	C389.610596,250.065735 393.335968,255.348969 396.844299,260.738739 
	C389.580048,266.248505 374.833466,262.372192 369.875092,253.733856 
	C366.706757,248.214050 365.145172,242.021469 362.733978,236.185410 
	C358.731506,226.497711 354.242889,217.004837 350.437592,207.243378 
	C346.681549,197.608124 348.867035,194.250336 359.103973,193.668335 
	C377.091248,192.645721 394.979095,191.263901 412.278503,184.226974 
z"/>
<path fill="#000000" opacity="1.000000" stroke="none" 
	d="
M536.236145,240.246765 
	C543.602356,237.780655 548.849182,233.380676 549.471069,225.814529 
	C550.113098,218.003952 545.555054,212.748962 538.688538,209.414215 
	C537.373535,208.775574 535.849670,208.324875 535.393127,206.649506 
	C543.093689,198.666214 556.277771,200.619370 560.944397,210.404526 
	C562.156555,212.946335 563.041077,215.701523 565.229004,217.648605 
	C568.874756,220.893112 572.794067,220.552399 576.750183,218.312469 
	C580.284973,216.311127 582.821594,213.180084 585.597290,210.316269 
	C586.862427,209.010986 588.224976,207.481186 590.158325,209.523865 
	C596.836609,216.580063 593.573914,230.969528 584.463806,234.395233 
	C580.110413,236.032257 575.597351,235.569641 571.164124,234.849014 
	C563.472900,233.598846 563.361572,233.591660 561.491821,240.718353 
	C559.765137,247.299637 555.542847,250.602753 548.846008,250.265823 
	C543.561707,249.999939 538.787109,248.021988 534.637024,244.802322 
	C531.883179,242.665863 532.353516,240.985489 536.236145,240.246765 
z"/>
<path fill="#000000" opacity="1.000000" stroke="none" 
	d="
M137.738876,215.677490 
	C155.575012,217.652512 167.254120,230.931580 166.035721,247.996033 
	C164.950073,263.201294 151.974045,276.357208 139.641098,275.558014 
	C139.224640,273.110321 141.378342,272.182373 142.574402,270.762695 
	C148.225327,264.055267 151.556778,256.680389 148.829559,247.789658 
	C144.037598,232.167877 131.626282,226.235947 116.403717,232.234344 
	C112.893227,233.617676 109.534927,235.387253 106.015800,237.021225 
	C104.472992,225.688919 119.865616,215.376419 137.738876,215.677490 
z"/>
<path fill="#000000" opacity="1.000000" stroke="none" 
	d="
M476.254028,207.609772 
	C482.560699,207.879044 488.252136,209.118362 493.851807,210.716415 
	C498.666473,212.090454 499.204834,213.527435 496.590973,217.880814 
	C494.278809,221.731781 491.715363,225.432037 489.256348,229.194611 
	C486.792877,232.964035 484.019623,236.712936 482.925690,241.045486 
	C481.167877,248.007248 475.787567,249.336182 470.110352,250.149246 
	C465.805359,250.765808 463.955658,248.176620 465.208405,243.959229 
	C466.225739,240.534409 468.373199,237.754410 470.545898,235.003525 
	C472.402802,232.652420 474.379974,230.385483 476.089020,227.931610 
	C477.594910,225.769440 479.616852,223.291931 478.268921,220.649597 
	C477.026947,218.215042 473.939240,218.496017 471.522308,218.444565 
	C464.848999,218.302551 458.249603,217.623306 451.689545,216.428284 
	C444.627869,215.141907 437.768402,213.140320 431.121460,210.468506 
	C428.633545,209.468460 424.964813,208.825424 426.092865,204.924957 
	C427.196533,201.108963 430.015015,198.742096 434.343292,199.157806 
	C436.322784,199.347916 438.315765,199.680954 440.231140,200.208694 
	C451.932037,203.432755 463.627472,206.658936 476.254028,207.609772 
z"/>
<path fill="#000000" opacity="1.000000" stroke="none" 
	d="
M831.126221,241.481628 
	C842.303894,242.232483 849.750854,249.875427 849.243103,259.643890 
	C848.769470,268.755096 840.377136,276.362457 830.830627,276.334167 
	C820.811218,276.304474 812.990112,269.107544 812.687378,259.639008 
	C812.346863,248.988998 819.010986,242.288513 831.126221,241.481628 
z"/>
<path fill="#000000" opacity="1.000000" stroke="none" 
	d="
M170.225800,141.511612 
	C170.960800,142.178986 171.471008,142.613647 171.884186,143.126511 
	C172.067719,143.354324 172.055374,143.739960 172.147766,144.118927 
	C170.709396,145.293991 169.743744,143.954529 168.698166,143.412506 
	C153.320053,135.440552 137.745270,127.988289 120.458641,125.035416 
	C109.377823,123.142624 98.607193,123.795105 88.397858,129.012024 
	C87.374725,129.534836 86.265251,129.898804 85.173119,130.269531 
	C84.895317,130.363831 84.530258,130.201065 84.089096,130.140457 
	C82.467323,128.073318 84.069481,126.406136 85.030998,124.840195 
	C91.341934,114.562073 100.949165,110.501732 112.556114,111.319992 
	C129.324707,112.502129 143.053574,121.009689 156.202942,130.568542 
	C160.906525,133.987793 165.381958,137.720886 170.225800,141.511612 
z"/>
</svg>